<svg xmlns="http://www.w3.org/2000/svg" xmlns:xlink="http://www.w3.org/1999/xlink" width="512" height="512" viewBox="0 0 512 512"><defs><linearGradient id="a" x1="0.863" y1="0.122" x2="0.1" y2="0.908" gradientUnits="objectBoundingBox"><stop offset="0" stop-color="#43a6d5"/><stop offset="1" stop-color="#0087c9"/></linearGradient><clipPath id="c"><rect width="512" height="512"/></clipPath></defs><g id="b" clip-path="url(#c)"><rect width="512" height="512" rx="30" fill="url(#a)"/><path d="M-445-449.34a145.064,145.064,0,0,1-29.021-2.926,143.21,143.21,0,0,1-27.031-8.391,143.984,143.984,0,0,1-24.46-13.276,145.066,145.066,0,0,1-21.312-17.584,145.06,145.06,0,0,1-17.583-21.311,144.006,144.006,0,0,1-13.277-24.461,143.275,143.275,0,0,1-8.391-27.03A145.058,145.058,0,0,1-589-593.34a143.388,143.388,0,0,1,9.546-51.665,143.861,143.861,0,0,1,11.265-22.945,144.92,144.92,0,0,1,15-20.425A145.25,145.25,0,0,1-534.9-705.839a144.672,144.672,0,0,1,21.137-14.054A142.67,142.67,0,0,1-464.729-736,49.519,49.519,0,0,0-466-724.84c0,16.114,7.69,31,21.1,40.839-.066,1.379-.1,2.778-.1,4.161,0,40.387,28.6,75.931,68,84.516a45.7,45.7,0,0,0,44.5,35.984,45.494,45.494,0,0,0,29.674-11.007A142.688,142.688,0,0,1-319.6-522.5a144.751,144.751,0,0,1-14.14,20.586,145.3,145.3,0,0,1-17.41,17.795A143.478,143.478,0,0,1-394.083-458.6,143.462,143.462,0,0,1-445-449.34Zm77-98a30.034,30.034,0,0,0-30,30,30.034,30.034,0,0,0,30,30,30.035,30.035,0,0,0,30-30A30.034,30.034,0,0,0-368-547.34Zm-133-12a21.024,21.024,0,0,0-21,21,21.024,21.024,0,0,0,21,21,21.024,21.024,0,0,0,21-21A21.024,21.024,0,0,0-501-559.34Zm73-56a30.034,30.034,0,0,0-30,30,30.034,30.034,0,0,0,30,30,30.034,30.034,0,0,0,30-30A30.034,30.034,0,0,0-428-615.34Zm-107-28a20.023,20.023,0,0,0-20,20,20.022,20.022,0,0,0,20,20,20.023,20.023,0,0,0,20-20A20.023,20.023,0,0,0-535-643.341Zm51-83a17.019,17.019,0,0,0-17,17,17.019,17.019,0,0,0,17,17,17.019,17.019,0,0,0,17-17A17.019,17.019,0,0,0-484-726.341Z" transform="translate(701 849.34)" fill="#d7f0fc"/><path d="M20,103A20,20,0,0,1,0,83V20a20,20,0,0,1,40,0V63H162a20,20,0,0,1,0,40Z" transform="translate(282.431 170.391) rotate(-49)" fill="#ddf0f9"/></g></svg>