<svg xmlns="http://www.w3.org/2000/svg" width="88.786" height="89.319" viewBox="0 0 88.786 89.319"><path d="M78.767,31.841C57.2,31.576,31.642,55.032,31.986,76.481c.362,22.584,28.459,46.084,50.983,44.61,19.019-1.235,37.819-23.839,37.8-42.9-.02-20.612-20.393-45.339-40.986-46.323Q79.275,31.847,78.767,31.841Zm4.939,4.176a3.034,3.034,0,0,1,.578.082c3.326.817,5.437,7.452,2.987,9.852-2.39,2.35-8.763.119-9.559-3.135C77.015,39.965,80.719,35.9,83.706,36.017ZM52.579,51.667a3.49,3.49,0,0,1,.8.1c3.565.817,6.293,6.831,4.481,10.017-1.494,2.609-6.094,1.952-8.962,1.036-1.772-.558-4.2-1.852-4.172-3.724.046-3.425,4.093-7.349,7.6-7.428h.259Zm47.538,13.841h.239c2.41.04,4.919,2.967,4.979,5.377a5.209,5.209,0,0,1-4.182,4.78c-2.29.239-5.2-1.892-5.517-4.182C95.3,69.013,97.627,65.667,100.116,65.508ZM72.036,86.558c3.067,0,5.178,4.4,5.377,7.468.139,2.37-1.075,5.915-3.425,6.273-3.206.5-6.731-3.505-7.03-6.731C66.7,90.7,69.148,86.558,72.036,86.558Zm37.56.219a2.378,2.378,0,0,1,.657.08c2.33.637,3.545,5.357,1.792,7.01-1.693,1.613-6.154.179-6.711-2.091-.5-2.031,2.111-4.939,4.262-5ZM55.9,90.741c3.824-.1,7.17,6.014,6.134,9.7-.737,2.609-4.6,3.625-7.329,3.585-1.792-.02-4.262-.8-4.78-2.529C48.755,97.572,51.8,90.86,55.9,90.741ZM89,108.186c.06,0,.139.02.2.02,2.25.219,4.222,3.465,3.744,5.676a4.923,4.923,0,0,1-5.238,3.286c-1.753-.378-3.147-2.689-2.967-4.481C84.941,110.656,86.972,108.147,89,108.186Z" transform="translate(-31.983 -31.839)"/></svg>