<svg xmlns="http://www.w3.org/2000/svg" width="83.366" height="83.366" viewBox="0 0 83.366 83.366"><g transform="translate(0 0)"><path d="M41.683,0A41.683,41.683,0,1,0,83.366,41.683,41.683,41.683,0,0,0,41.683,0Zm-26.5,53.721a8.894,8.894,0,1,1,8.894-8.894A8.894,8.894,0,0,1,15.182,53.721ZM26.86,71.328a2.965,2.965,0,1,1,2.965-2.965A2.964,2.964,0,0,1,26.86,71.328ZM30,29.645a5.929,5.929,0,1,1,5.929-5.929A5.929,5.929,0,0,1,30,29.645ZM50.576,12.038A2.965,2.965,0,1,1,47.612,15,2.964,2.964,0,0,1,50.576,12.038Zm-2.965,59.29A5.929,5.929,0,1,1,53.541,65.4,5.929,5.929,0,0,1,47.612,71.328Zm.18-23.716a5.929,5.929,0,1,1,5.929-5.929A5.929,5.929,0,0,1,47.792,47.612ZM65.309,29.645a2.965,2.965,0,1,1,2.965-2.965A2.964,2.964,0,0,1,65.309,29.645Zm8.983,17.967a2.965,2.965,0,1,1,2.965-2.965A2.964,2.964,0,0,1,74.293,47.612Z" transform="translate(0 0)"/></g></svg>