<svg xmlns="http://www.w3.org/2000/svg" width="84.398" height="84.393" viewBox="0 0 84.398 84.393"><g transform="translate(0 0)"><path d="M94.8,58.484a3.577,3.577,0,0,0-2.428-1.43A25.277,25.277,0,0,1,70.123,32.064,25.016,25.016,0,0,1,73.31,19.87a3.506,3.506,0,0,0-1.585-4.891A42.642,42.642,0,0,0,11.1,53.2a42.59,42.59,0,0,0,84.341,8.009A3.512,3.512,0,0,0,94.8,58.484ZM53.641,88.366a35.171,35.171,0,1,1,0-70.339,35.563,35.563,0,0,1,11.746,1.981A32.113,32.113,0,0,0,87.6,63.306,35.453,35.453,0,0,1,53.641,88.366Z" transform="translate(-11.1 -11)"/><ellipse cx="3.513" cy="3.496" rx="3.513" ry="3.496" transform="translate(28.074 20.582)"/><ellipse cx="3.513" cy="3.496" rx="3.513" ry="3.496" transform="translate(40.112 34.343)"/><ellipse cx="3.513" cy="3.496" rx="3.513" ry="3.496" transform="translate(45.176 53.202)"/><ellipse cx="3.513" cy="3.496" rx="3.513" ry="3.496" transform="translate(19.841 47.019)"/></g></svg>