<svg xmlns="http://www.w3.org/2000/svg" width="90" height="90" viewBox="0 0 90 90"><path d="M30.288,38.637a6.855,6.855,0,1,1-6.855-6.855A6.858,6.858,0,0,1,30.288,38.637Zm9.01-.577a5.017,5.017,0,1,0,3.58,6.126A5.005,5.005,0,0,0,39.3,38.06ZM90,45A45,45,0,1,1,45,0a45.69,45.69,0,0,1,9.74,1.086A5.1,5.1,0,0,1,58.71,6.567a21.424,21.424,0,0,0-.119,2.342,22.529,22.529,0,0,0,22.5,22.5c.8,0,1.578-.051,2.342-.119a5.088,5.088,0,0,1,5.5,3.971A46.786,46.786,0,0,1,90,45ZM79.8,45a33.347,33.347,0,0,0-.17-3.428,32.728,32.728,0,0,1-27.064-16.7,14.2,14.2,0,1,1-27.047-8.688A34.8,34.8,0,1,0,79.8,45Z"/></svg>