<svg xmlns="http://www.w3.org/2000/svg" width="86.282" height="86.283" viewBox="0 0 86.282 86.283"><g transform="translate(0)"><path d="M84.427,30.577l-.381-1.263-1.275.338a9.208,9.208,0,0,1-2.393.318,9.544,9.544,0,0,1-9.534-9.534,7.983,7.983,0,0,1,.093-1.209l.145-.944-.837-.46a9.315,9.315,0,0,1-2.868-2.475L66.3,13.961l-1.077,1.39A9.528,9.528,0,1,1,50.877,2.861L52.716.97l-2.6-.409A45.115,45.115,0,0,0,43.142,0,43.088,43.088,0,1,0,84.427,30.577ZM43.142,83.554a40.412,40.412,0,1,1,4.2-80.6A12.252,12.252,0,0,0,57.673,21.8,12.174,12.174,0,0,0,66.3,18.243a11.868,11.868,0,0,0,1.837,1.495c-.015.234-.023.467-.023.7A12.277,12.277,0,0,0,80.378,32.7a11.754,11.754,0,0,0,1.779-.134A40.447,40.447,0,0,1,43.142,83.554Z" transform="translate(-0.001 0)"/></g><g transform="translate(21.797 19.072)"><path d="M137.064,113.174a7.722,7.722,0,1,0,7.722,7.722A7.731,7.731,0,0,0,137.064,113.174Zm0,12.714a4.993,4.993,0,1,1,4.993-4.993A5,5,0,0,1,137.064,125.888Z" transform="translate(-129.342 -113.174)"/></g><g transform="translate(13.623 35.419)"><path d="M86.745,210.178a5.906,5.906,0,1,0,5.906,5.906A5.913,5.913,0,0,0,86.745,210.178Zm0,9.082a3.176,3.176,0,1,1,3.176-3.176A3.18,3.18,0,0,1,86.745,219.26Z" transform="translate(-80.839 -210.178)"/></g><g transform="translate(59.032 49.95)"><path d="M356.2,296.4a5.906,5.906,0,1,0,5.906,5.906A5.913,5.913,0,0,0,356.2,296.4Zm0,9.082a3.176,3.176,0,1,1,3.176-3.176A3.18,3.18,0,0,1,356.2,305.486Z" transform="translate(-350.297 -296.404)"/></g><g transform="translate(46.318 60.849)"><path d="M280.756,361.075a5.906,5.906,0,1,0,5.906,5.906A5.913,5.913,0,0,0,280.756,361.075Zm0,9.082a3.176,3.176,0,1,1,3.176-3.176A3.18,3.18,0,0,1,280.756,370.157Z" transform="translate(-274.85 -361.075)"/></g><g transform="translate(42.685 44.501)"><path d="M259.2,264.07a5.906,5.906,0,1,0,5.906,5.906A5.913,5.913,0,0,0,259.2,264.07Zm0,9.082a3.176,3.176,0,1,1,3.176-3.176A3.18,3.18,0,0,1,259.2,273.152Z" transform="translate(-253.293 -264.07)"/></g><g transform="translate(51.316 29.971)"><rect width="3.633" height="2.729"/></g><g transform="translate(56.765 35.419)"><rect width="3.633" height="2.729"/></g><g transform="translate(58.581 28.153)"><rect width="3.633" height="2.729"/></g><g transform="translate(16.803 62.666)"><rect width="3.633" height="2.729"/></g><g transform="translate(20.437 57.216)"><rect width="3.633" height="2.729"/></g><g transform="translate(24.069 62.666)"><rect width="3.633" height="2.729"/></g></svg>