<svg xmlns="http://www.w3.org/2000/svg" width="92.989" height="91.145" viewBox="0 0 92.989 91.145"><g transform="translate(0 6.442)"><path d="M82.172,88.632A11.718,11.718,0,0,1,76.027,72a3.91,3.91,0,0,0-3.91-5.766,11.873,11.873,0,0,1-1.472.092A11.716,11.716,0,0,1,59.017,53.133a3.91,3.91,0,0,0-5.766-3.91,11.718,11.718,0,0,1-16.633-6.145,3.91,3.91,0,0,0-4.659-2.4A43.007,43.007,0,0,0,43,125.25h0a43.018,43.018,0,0,0,41.564-31.96A3.909,3.909,0,0,0,82.172,88.632ZM67.885,107.126a34.947,34.947,0,0,1-24.877,10.305h0A35.191,35.191,0,0,1,30.946,49.184a19.531,19.531,0,0,0,20.469,8.939A19.573,19.573,0,0,0,67.123,73.831a19.545,19.545,0,0,0,8.943,20.474A35.211,35.211,0,0,1,67.885,107.126Z" transform="translate(0 -40.547)"/></g><g transform="translate(85.17 38.701)"><path d="M475.624,219.313a3.914,3.914,0,1,0,1.144,2.765A3.94,3.94,0,0,0,475.624,219.313Z" transform="translate(-468.949 -218.169)"/></g><g transform="translate(42.78 0)"><path d="M242.225,6.222a3.91,3.91,0,1,0,1.144,2.765A3.941,3.941,0,0,0,242.225,6.222Z" transform="translate(-235.55 -5.078)"/></g><g transform="translate(66.741 16.587)"><path d="M374.147,97.549a3.908,3.908,0,1,0,1.147,2.765A3.933,3.933,0,0,0,374.147,97.549Z" transform="translate(-367.475 -96.405)"/></g><g transform="translate(46.26 47.49)"><path d="M261.383,267.705a3.914,3.914,0,1,0,1.144,2.765A3.937,3.937,0,0,0,261.383,267.705Z" transform="translate(-254.708 -266.561)"/></g><g transform="translate(35.834 31.852)"><path d="M203.979,181.6a3.911,3.911,0,1,0,1.144,2.763A3.929,3.929,0,0,0,203.979,181.6Z" transform="translate(-197.304 -180.457)"/></g><g transform="translate(17.59 39.671)"><path d="M103.525,224.653a3.914,3.914,0,1,0,1.144,2.765A3.937,3.937,0,0,0,103.525,224.653Z" transform="translate(-96.85 -223.509)"/></g><g transform="translate(46.26 65.735)"><path d="M261.382,368.163a3.911,3.911,0,1,0,1.144,2.763A3.929,3.929,0,0,0,261.382,368.163Z" transform="translate(-254.707 -367.016)"/></g><g transform="translate(28.015 57.916)"><path d="M160.927,325.108a3.914,3.914,0,1,0,1.144,2.765A3.937,3.937,0,0,0,160.927,325.108Z" transform="translate(-154.252 -323.964)"/></g></svg>