<svg xmlns="http://www.w3.org/2000/svg" width="88.704" height="88.667" viewBox="0 0 88.704 88.667"><g transform="translate(0 0)"><path d="M84.319,33.971h0a14.877,14.877,0,0,1-4.36-10.419h0A14.784,14.784,0,0,0,65.181,8.772a14.525,14.525,0,0,1-10.419-4.36h0a14.767,14.767,0,0,0-20.875.018h0A14.877,14.877,0,0,1,23.466,8.79h0A14.784,14.784,0,0,0,8.687,23.569h0a14.525,14.525,0,0,1-4.36,10.419h0a14.772,14.772,0,0,0,0,20.893h0A14.877,14.877,0,0,1,8.687,65.3,14.784,14.784,0,0,0,23.466,80.08h0a14.525,14.525,0,0,1,10.419,4.36h0a14.772,14.772,0,0,0,20.893,0h0A14.877,14.877,0,0,1,65.2,80.08,14.784,14.784,0,0,0,79.978,65.3a14.526,14.526,0,0,1,4.36-10.419h0A14.68,14.68,0,0,0,84.319,33.971ZM20.88,40.591A3.093,3.093,0,1,1,23.973,37.5,3.176,3.176,0,0,1,20.88,40.591Zm13.3,30.951A5.137,5.137,0,1,1,39.295,66.4,5.062,5.062,0,0,1,34.175,71.542ZM47.109,48.189a3.8,3.8,0,1,1,3.8-3.8A3.775,3.775,0,0,1,47.109,48.189Zm3.8-25.325A3.093,3.093,0,1,1,54,19.77,3.127,3.127,0,0,1,50.908,22.864ZM71.023,54.737a3.871,3.871,0,1,1,3.871-3.871A3.852,3.852,0,0,1,71.023,54.737Z" transform="translate(0 -0.1)"/></g></svg>