<svg xmlns="http://www.w3.org/2000/svg" width="92.989" height="91.145" viewBox="0 0 92.989 91.145"><g transform="translate(0 6.442)"><path d="M82.172,88.629A11.718,11.718,0,0,1,76.027,72a3.91,3.91,0,0,0-3.91-5.766,11.943,11.943,0,0,1-1.472.092A11.717,11.717,0,0,1,59.016,53.131a3.91,3.91,0,0,0-5.766-3.91,11.718,11.718,0,0,1-16.632-6.145,3.91,3.91,0,0,0-4.659-2.4A43.008,43.008,0,0,0,43,125.248h0a43.019,43.019,0,0,0,41.564-31.96A3.909,3.909,0,0,0,82.172,88.629Zm-57.907-8.18a3.911,3.911,0,1,1,1.144-2.765A3.939,3.939,0,0,1,24.265,80.449ZM34.691,98.693a3.914,3.914,0,1,1,1.144-2.765A3.943,3.943,0,0,1,34.691,98.693ZM42.51,72.63a3.911,3.911,0,1,1,1.144-2.765A3.939,3.939,0,0,1,42.51,72.63Zm10.425,33.883a3.911,3.911,0,1,1,1.144-2.765A3.943,3.943,0,0,1,52.935,106.512Zm0-18.245A3.911,3.911,0,1,1,54.079,85.5,3.943,3.943,0,0,1,52.935,88.268Z" transform="translate(0 -40.544)"/></g><g transform="translate(85.17 38.702)"><path d="M475.621,219.313a3.908,3.908,0,1,0,1.147,2.765A3.933,3.933,0,0,0,475.621,219.313Z" transform="translate(-468.948 -218.169)"/></g><g transform="translate(42.781 0)"><path d="M242.226,6.221a3.914,3.914,0,1,0,1.144,2.765A3.939,3.939,0,0,0,242.226,6.221Z" transform="translate(-235.551 -5.077)"/></g><g transform="translate(66.741 16.587)"><path d="M374.147,97.549a3.908,3.908,0,1,0,1.147,2.765A3.928,3.928,0,0,0,374.147,97.549Z" transform="translate(-367.475 -96.405)"/></g></svg>