<svg xmlns="http://www.w3.org/2000/svg" width="96" height="96" viewBox="0 0 96 96"><path d="M52,4a48,48,0,1,0,48,48,46.578,46.578,0,0,0-.375-5.734,9.966,9.966,0,0,1-14.984-4.828A15.966,15.966,0,0,1,60,28a15.816,15.816,0,0,1,2.234-8.031A1.208,1.208,0,0,1,62,20,9.989,9.989,0,0,1,52,10a9.853,9.853,0,0,1,1.984-5.922C53.328,4.047,52.672,4,52,4ZM82,4a6,6,0,1,0,6,6A6,6,0,0,0,82,4ZM44.2,12.75a18.12,18.12,0,0,0,7.984,12.344A22.471,22.471,0,0,0,52,28,24.026,24.026,0,0,0,76,52a23.211,23.211,0,0,0,5.875-.75,18.065,18.065,0,0,0,9.937,4.625A40,40,0,1,1,44.2,12.75ZM76,24a4,4,0,1,0,4,4A4.008,4.008,0,0,0,76,24ZM44,28a4,4,0,1,0,4,4A4.008,4.008,0,0,0,44,28Zm52,0a4,4,0,1,0,4,4A4.008,4.008,0,0,0,96,28ZM32,40a8,8,0,1,0,8,8A8,8,0,0,0,32,40Zm20,8a4,4,0,1,0,4,4A4.008,4.008,0,0,0,52,48ZM38,64a6,6,0,1,0,6,6A6,6,0,0,0,38,64Zm28,4a6,6,0,1,0,6,6A6,6,0,0,0,66,68Z" transform="translate(-4 -4)"/></svg>