<svg xmlns="http://www.w3.org/2000/svg" width="113.678" height="93.559" viewBox="0 0 113.678 93.559"><g transform="translate(13.488 61.729)"><rect width="3.48" height="3.48"/></g><g transform="translate(24.464 36.581)"><rect width="3.48" height="3.48"/></g><g transform="translate(26.582 75.447)"><rect width="3.48" height="3.48"/></g><g transform="translate(0 15.274)"><path d="M62.344,180.435a35.756,35.756,0,1,1-26.6-62.871l-.335-3.464a39.236,39.236,0,1,0,29.186,68.989Z" transform="translate(0 -114.1)"/></g><g transform="translate(48.699 46.64)"><rect width="3.48" height="3.48"/></g><g transform="translate(73.847 36.581)"><rect width="3.48" height="3.48"/></g><g transform="translate(94.88 36.581)"><rect width="3.48" height="3.48"/></g><g transform="translate(59.672 21.492)"><rect width="3.48" height="3.48"/></g><g transform="translate(61.762 60.358)"><rect width="3.48" height="3.48"/></g><g transform="translate(35.209 0)"><path d="M197.813,45.308a39.235,39.235,0,1,0,39.235,39.235A39.279,39.279,0,0,0,197.813,45.308Zm0,74.99a35.755,35.755,0,1,1,35.755-35.755A35.8,35.8,0,0,1,197.813,120.3Z" transform="translate(-158.578 -45.308)"/></g></svg>