<svg xmlns="http://www.w3.org/2000/svg" width="87.406" height="96" viewBox="0 0 87.406 96"><g transform="translate(11.893 52.034)"><path d="M89.482,277.9a1.959,1.959,0,0,0-2.741.406l-.024.033a1.963,1.963,0,0,0,1.589,3.113,1.975,1.975,0,0,0,1.176-3.552Z" transform="translate(-86.347 -277.514)"/></g><g transform="translate(0)"><path d="M107.263,41.07a15.65,15.65,0,0,0-14.32-24.8,11.689,11.689,0,0,1-12-6.93,15.65,15.65,0,0,0-28.64,0,11.69,11.69,0,0,1-12,6.93,15.65,15.65,0,0,0-14.32,24.8,11.69,11.69,0,0,1,0,13.86,15.65,15.65,0,0,0,14.32,24.8,11.689,11.689,0,0,1,12,6.93,15.65,15.65,0,0,0,28.64,0,11.691,11.691,0,0,1,12-6.93,16.337,16.337,0,0,0,1.766.1,15.655,15.655,0,0,0,12.554-24.9A11.689,11.689,0,0,1,107.263,41.07ZM104.8,70.041a11.59,11.59,0,0,1-11.429,5.8,15.591,15.591,0,0,0-16.012,9.245,11.732,11.732,0,0,1-21.47,0,15.586,15.586,0,0,0-14.292-9.338,15.98,15.98,0,0,0-1.72.093A11.732,11.732,0,0,1,29.138,57.245a15.593,15.593,0,0,0,0-18.489A11.732,11.732,0,0,1,39.873,20.162a15.593,15.593,0,0,0,16.012-9.245,11.732,11.732,0,0,1,21.47,0,15.594,15.594,0,0,0,16.012,9.245A11.732,11.732,0,0,1,104.1,38.755a15.593,15.593,0,0,0,0,18.489A11.589,11.589,0,0,1,104.8,70.041Z" transform="translate(-22.917)"/></g><g transform="translate(9.906 28.984)"><path d="M81.276,166.438a8.1,8.1,0,0,1-.5-8.923,1.959,1.959,0,0,0-3.4-1.948,11.977,11.977,0,0,0,.737,13.185,8.227,8.227,0,0,1,1.573,5.268,1.959,1.959,0,0,0,1.856,2.057l.1,0a1.959,1.959,0,0,0,1.955-1.859A12.159,12.159,0,0,0,81.276,166.438Z" transform="translate(-75.746 -154.582)"/></g><g transform="translate(48.651 53.103)"><path d="M296.437,285.626a8.229,8.229,0,1,0,2.41,5.819A8.175,8.175,0,0,0,296.437,285.626Zm-2.771,8.866a4.311,4.311,0,1,1,1.262-3.048A4.282,4.282,0,0,1,293.666,294.492Z" transform="translate(-282.39 -283.216)"/></g><g transform="translate(50.579 37.228)"><path d="M296.06,199.167l-.021-.021a1.959,1.959,0,0,0-2.813,2.727l.034.034a1.959,1.959,0,1,0,2.8-2.74Z" transform="translate(-292.674 -198.551)"/></g><g transform="translate(22.348 53.103)"><path d="M156.153,285.627a8.174,8.174,0,0,0-5.818-2.41h0a8.229,8.229,0,1,0,5.818,2.41Zm-2.77,8.866a4.31,4.31,0,1,1,1.262-3.048A4.282,4.282,0,0,1,153.382,294.493Z" transform="translate(-142.106 -283.217)"/></g><g transform="translate(22.348 26.44)"><path d="M150.335,141.013h0a8.228,8.228,0,0,0-8.228,8.228h0a8.229,8.229,0,1,0,8.228-8.228Zm0,12.538a4.31,4.31,0,1,1,4.31-4.31A4.282,4.282,0,0,1,150.335,153.551Z" transform="translate(-142.107 -141.013)"/></g><g transform="translate(48.718 26.44)"><path d="M290.908,141.012h0a8.272,8.272,0,0,0-8.14,7.022,1.959,1.959,0,1,0,3.877.571,4.311,4.311,0,1,1,4.986,4.886,1.959,1.959,0,1,0,.649,3.864,8.229,8.229,0,0,0-1.372-16.343Z" transform="translate(-282.746 -141.012)"/></g></svg>