<svg xmlns="http://www.w3.org/2000/svg" width="85.6" height="85.6" viewBox="0 0 85.6 85.6"><g transform="translate(18.547 25.68)"><path d="M116.641,153.6a5.707,5.707,0,1,0,5.707,5.707A5.723,5.723,0,0,0,116.641,153.6Z" transform="translate(-110.934 -153.6)"/></g><g transform="translate(38.52 7.133)"><path d="M241.1,50.514c-2.853-1-3.567-4.851-3.567-7.847h-1.427a5.707,5.707,0,1,0,0,11.413,5.255,5.255,0,0,0,3.709-1.427S241.386,50.514,241.1,50.514Z" transform="translate(-230.401 -42.667)"/></g><g transform="translate(21.4 57.067)"><path d="M132.28,341.333a4.28,4.28,0,1,0,4.28,4.28A4.2,4.2,0,0,0,132.28,341.333Z" transform="translate(-128 -341.333)"/></g><path d="M85.029,36.095a1.548,1.548,0,0,0-1.141-1.141,1.356,1.356,0,0,0-1.427.571,10.154,10.154,0,0,1-8.275,4.423,10.372,10.372,0,0,1-8.7-4.993,1.756,1.756,0,0,0-1.427-.713H62.774A12.787,12.787,0,0,1,49.934,21.4a12.556,12.556,0,0,1,.285-2.425l-.428.285a8.253,8.253,0,0,1-5.564,2.14,8.56,8.56,0,1,1,0-17.12h2a4.516,4.516,0,0,1,1.141-1.712,1.757,1.757,0,0,0,.285-1.427A1.417,1.417,0,0,0,46.51.285,17.573,17.573,0,0,0,42.8,0,42.8,42.8,0,1,0,85.6,42.8,35.478,35.478,0,0,0,85.029,36.095ZM25.68,68.48a7.133,7.133,0,1,1,7.133-7.133A7.064,7.064,0,0,1,25.68,68.48ZM24.253,39.947a8.56,8.56,0,1,1,8.56-8.56A8.585,8.585,0,0,1,24.253,39.947ZM54.213,72.76A11.413,11.413,0,1,1,65.627,61.347,11.447,11.447,0,0,1,54.213,72.76Z"/><g transform="translate(45.653 52.787)"><path d="M281.627,315.733a8.56,8.56,0,1,0,8.56,8.56A8.585,8.585,0,0,0,281.627,315.733Z" transform="translate(-273.067 -315.733)"/></g></svg>