<svg xmlns="http://www.w3.org/2000/svg" width="78.651" height="90.1" viewBox="0 0 78.651 90.1"><g transform="translate(-32.53 0)"><g transform="translate(32.53 0)"><path d="M111.12,72.415a4.768,4.768,0,0,0-2.5-3.462A14.329,14.329,0,0,1,101.38,52.38a4.785,4.785,0,0,0-1.74-5.094A26.79,26.79,0,0,1,94.006,9.916,5,5,0,0,0,91.519,2.2,45.054,45.054,0,1,0,77.58,90.1a44.7,44.7,0,0,0,32.251-13.6A4.778,4.778,0,0,0,111.12,72.415ZM64.357,21.273A9.968,9.968,0,1,1,54.39,31.24,9.979,9.979,0,0,1,64.357,21.273Zm-4.3,45.669A11.383,11.383,0,1,1,71.438,55.558,11.4,11.4,0,0,1,60.054,66.941Zm20.868,5.48a8.663,8.663,0,1,1,8.663-8.663A8.673,8.673,0,0,1,80.923,72.422Z" transform="translate(-32.53 0)"/></g></g></svg>