<svg xmlns="http://www.w3.org/2000/svg" width="78.65" height="90.1" viewBox="0 0 78.65 90.1"><g transform="translate(21.867 21.279)"><path d="M166.7,120.881a9.957,9.957,0,1,0,9.956,9.957A9.968,9.968,0,0,0,166.7,120.881Zm0,12.773a2.816,2.816,0,1,1,2.816-2.816A2.82,2.82,0,0,1,166.7,133.654Z" transform="translate(-156.748 -120.881)"/></g><g transform="translate(16.148 44.191)"><path d="M135.623,251.025A11.371,11.371,0,1,0,146.993,262.4,11.384,11.384,0,0,0,135.623,251.025Zm0,15.6a4.23,4.23,0,1,1,4.23-4.23A4.235,4.235,0,0,1,135.623,266.626Z" transform="translate(-124.252 -251.025)"/></g><g transform="translate(39.742 55.11)"><path d="M266.951,313.084a8.653,8.653,0,1,0,8.653,8.653A8.663,8.663,0,0,0,266.951,313.084Zm0,10.166a1.513,1.513,0,1,1,1.513-1.513A1.515,1.515,0,0,1,266.951,323.25Z" transform="translate(-258.298 -313.084)"/></g><g transform="translate(0 0)"><path d="M111.121,72.415a4.768,4.768,0,0,0-2.5-3.462,14.33,14.33,0,0,1-7.236-16.571,4.786,4.786,0,0,0-1.74-5.1A26.79,26.79,0,0,1,94.009,9.915,5,5,0,0,0,91.521,2.2,45.054,45.054,0,1,0,77.582,90.1a44.7,44.7,0,0,0,32.251-13.6A4.78,4.78,0,0,0,111.121,72.415ZM77.582,82.952a37.9,37.9,0,0,1-.332-75.8h.333a37.962,37.962,0,0,1,8.968,1.069A33.657,33.657,0,0,0,81.664,25.77,33.876,33.876,0,0,0,94.12,52.041a21.48,21.48,0,0,0,8.416,21.536A37.558,37.558,0,0,1,77.582,82.952Z" transform="translate(-32.532 0)"/></g></svg>