<svg xmlns="http://www.w3.org/2000/svg" width="105" height="92.748" viewBox="0 0 105 92.748"><g transform="translate(-112 -50.23)"><path d="M40.6-1579.258a41.9,41.9,0,0,1-7.9-2.452,42.053,42.053,0,0,1-7.147-3.88,42.42,42.42,0,0,1-6.227-5.137,42.368,42.368,0,0,1-5.138-6.227,42.131,42.131,0,0,1-3.879-7.148,41.826,41.826,0,0,1-2.452-7.9,42.391,42.391,0,0,1-.855-8.48,42.39,42.39,0,0,1,.855-8.48,41.869,41.869,0,0,1,2.452-7.9A42.089,42.089,0,0,1,14.186-1644a42.427,42.427,0,0,1,5.138-6.227,42.352,42.352,0,0,1,6.227-5.137,42.07,42.07,0,0,1,7.147-3.88,41.879,41.879,0,0,1,7.9-2.452,42.344,42.344,0,0,1,5.584-.756c.131-.009.258-.014.381-.014a2.508,2.508,0,0,1,2.309,1.041,3.36,3.36,0,0,1,.337,2.209,7.55,7.55,0,0,1-.7,2.255,28.807,28.807,0,0,0-2.941,12.672,28.814,28.814,0,0,0,28.781,28.78,28.778,28.778,0,0,0,11.066-2.2,7.21,7.21,0,0,1,2.93-.855,1.933,1.933,0,0,1,1.55.646,3.8,3.8,0,0,1,.693,2.33A18.229,18.229,0,0,1,90.3-1612a41.891,41.891,0,0,1-2.452,7.9,42.072,42.072,0,0,1-3.88,7.148,42.476,42.476,0,0,1-5.137,6.227,42.38,42.38,0,0,1-6.228,5.137,42.018,42.018,0,0,1-7.147,3.88,41.892,41.892,0,0,1-7.9,2.452,42.416,42.416,0,0,1-8.48.855A42.4,42.4,0,0,1,40.6-1579.258Zm11.986-14.34a8.775,8.775,0,0,0,8.765,8.766,8.776,8.776,0,0,0,8.766-8.766,8.775,8.775,0,0,0-8.766-8.765A8.775,8.775,0,0,0,52.583-1593.6Zm-26.005-10.811a6.144,6.144,0,0,0,6.136,6.136,6.143,6.143,0,0,0,6.136-6.136,6.143,6.143,0,0,0-6.136-6.136A6.144,6.144,0,0,0,26.577-1604.408Zm18.7-7.013a5.558,5.558,0,0,0,5.552,5.552,5.558,5.558,0,0,0,5.551-5.552,5.557,5.557,0,0,0-5.551-5.551A5.558,5.558,0,0,0,45.277-1611.421Zm-28.342-17.824a5.85,5.85,0,0,0,5.844,5.844,5.85,5.85,0,0,0,5.844-5.844,5.851,5.851,0,0,0-5.844-5.844A5.851,5.851,0,0,0,16.935-1629.245Zm11.98-18.992a4.973,4.973,0,0,0,4.967,4.967,4.973,4.973,0,0,0,4.967-4.967,4.972,4.972,0,0,0-4.967-4.967A4.972,4.972,0,0,0,28.915-1648.237ZM75.1-1629.582l-13.892-12.077a5.843,5.843,0,0,1-.576-8.244,5.843,5.843,0,0,1,8.244-.576l9.482,8.242,23.386-26.9a5.844,5.844,0,0,1,8.245-.577,5.844,5.844,0,0,1,.576,8.244l-27.22,31.314a5.832,5.832,0,0,1-4.413,2.01A5.822,5.822,0,0,1,75.1-1629.582Z" transform="translate(105 1721.381)"/></g></svg>