<svg xmlns="http://www.w3.org/2000/svg" width="87.721" height="87.721" viewBox="0 0 87.721 87.721"><g transform="translate(0 0)"><path d="M74.875,12.847A43.861,43.861,0,1,0,12.847,74.875,43.861,43.861,0,1,0,74.875,12.847ZM73.032,73.032A41.255,41.255,0,1,1,14.689,14.689,41.255,41.255,0,0,1,73.032,73.032Z" transform="translate(0 0)"/></g><g transform="translate(68.732 54.724)"><path d="M409.748,319.408a34.727,34.727,0,0,1-8.579,14.009l1.843,1.842a37.3,37.3,0,0,0,9.216-15.05Z" transform="translate(-401.169 -319.408)"/></g><g transform="translate(68.733 17.145)"><path d="M412.651,116.517a37.741,37.741,0,0,0-9.637-16.446l-1.842,1.842a35.062,35.062,0,0,1,9.45,32.526l2.544.563A38.146,38.146,0,0,0,412.651,116.517Z" transform="translate(-401.172 -100.071)"/></g><g transform="translate(39.763 39.763)"><path d="M236.181,232.083a4.1,4.1,0,1,0,4.1,4.1A4.1,4.1,0,0,0,236.181,232.083Zm0,5.59a1.492,1.492,0,1,1,1.492-1.492A1.494,1.494,0,0,1,236.181,237.673Z" transform="translate(-232.083 -232.083)"/></g><g transform="translate(17.553 39.763)"><path d="M106.552,232.083a4.1,4.1,0,1,0,4.1,4.1A4.1,4.1,0,0,0,106.552,232.083Zm0,5.59a1.492,1.492,0,1,1,1.492-1.492A1.494,1.494,0,0,1,106.552,237.673Z" transform="translate(-102.454 -232.083)"/></g><g transform="translate(50.868 17.553)"><path d="M301,102.454a4.1,4.1,0,1,0,4.1,4.1A4.1,4.1,0,0,0,301,102.454Zm0,5.59a1.492,1.492,0,1,1,1.492-1.492A1.494,1.494,0,0,1,301,108.044Z" transform="translate(-296.898 -102.454)"/></g><g transform="translate(61.972 39.763)"><path d="M365.81,232.083a4.1,4.1,0,1,0,4.1,4.1A4.1,4.1,0,0,0,365.81,232.083Zm0,5.59a1.492,1.492,0,1,1,1.492-1.492A1.494,1.494,0,0,1,365.81,237.673Z" transform="translate(-361.712 -232.083)"/></g><g transform="translate(28.658 17.553)"><path d="M171.366,102.454a4.1,4.1,0,1,0,4.1,4.1A4.1,4.1,0,0,0,171.366,102.454Zm0,5.59a1.492,1.492,0,1,1,1.492-1.492A1.494,1.494,0,0,1,171.366,108.044Z" transform="translate(-167.268 -102.454)"/></g><g transform="translate(50.868 61.972)"><path d="M301,361.713a4.1,4.1,0,1,0,4.1,4.1A4.1,4.1,0,0,0,301,361.713Zm0,5.59a1.492,1.492,0,1,1,1.492-1.492A1.494,1.494,0,0,1,301,367.3Z" transform="translate(-296.898 -361.713)"/></g><g transform="translate(28.658 61.972)"><path d="M171.366,361.713a4.1,4.1,0,1,0,4.1,4.1A4.1,4.1,0,0,0,171.366,361.713Zm0,5.59a1.492,1.492,0,1,1,1.492-1.492A1.494,1.494,0,0,1,171.366,367.3Z" transform="translate(-167.268 -361.713)"/></g></svg>